<svg width="50" height="50" viewBox="0 0 50 50" fill="none" xmlns="http://www.w3.org/2000/svg">
<rect width="50" height="50" fill="#FF0000"/>
<path fill-rule="evenodd" clip-rule="evenodd" d="M8.33334 4.16669H12.5V8.33335H16.6667V12.5H12.5V16.6667H16.6667V20.8334H12.5V25H16.6667V29.1667H12.5V45.8334H8.33334V4.16669ZM20.8333 25H16.6667V20.8334H20.8333V25ZM25 25H20.8333V29.1667H25V33.3334H29.1667V29.1667H33.3333V33.3334H37.5V29.1667H41.6667V25H37.5V20.8334H41.6667V16.6667H37.5V12.5H41.6667V8.33335H37.5V12.5H33.3333V16.6667H29.1667V12.5H25V8.33335H20.8333V12.5H16.6667V16.6667H20.8333V20.8334H25V25ZM29.1667 25V29.1667H25V25H29.1667ZM29.1667 20.8334V25H33.3333V29.1667H37.5V25H33.3333V20.8334H37.5V16.6667H33.3333V20.8334H29.1667ZM29.1667 20.8334V16.6667H25V12.5H20.8333V16.6667H25V20.8334H29.1667Z" fill="white"/>
</svg>
