<svg width="50" height="50" viewBox="0 0 50 50" fill="none" xmlns="http://www.w3.org/2000/svg">
<rect width="50" height="50" fill="#FF0000"/>
<rect x="23" y="5" width="4" height="39" fill="white"/>
<rect x="5" y="27" width="4" height="39" transform="rotate(-90 5 27)" fill="white"/>
<rect x="30" y="35" width="10" height="21" transform="rotate(180 30 35)" fill="white"/>
<rect x="35" y="20" width="10" height="21" transform="rotate(90 35 20)" fill="white"/>
<rect x="7" y="7" width="1" height="5" fill="white"/>
<rect x="38" y="10" width="1" height="5" fill="white"/>
<rect x="13" y="34" width="1" height="5" fill="white"/>
<rect x="38" y="38" width="1" height="5" fill="white"/>
<rect x="10" y="9" width="1" height="5" transform="rotate(90 10 9)" fill="white"/>
<rect x="41" y="12" width="1" height="5" transform="rotate(90 41 12)" fill="white"/>
<rect x="16" y="36" width="1" height="5" transform="rotate(90 16 36)" fill="white"/>
<rect x="41" y="40" width="1" height="5" transform="rotate(90 41 40)" fill="white"/>
</svg>
