<svg width="140" height="140" viewBox="0 0 140 140" fill="none" xmlns="http://www.w3.org/2000/svg">
<g clip-path="url(#clip0_27_2)">
<path d="M0 0L0 140H140V0H0Z" fill="#FF0000"/>
<path d="M63 11V26H77V11H63Z" fill="white"/>
<path d="M13 55L13 99H20L20 55H13Z" fill="white"/>
<path d="M46.6666 62.2222V77.7778H64.5555V62.2222H46.6666Z" fill="white"/>
<path d="M93.3334 62.2222V77.7778H111.222V62.2222H93.3334Z" fill="white"/>
<path d="M120 55V99H127V55H120Z" fill="white"/>
<path fill-rule="evenodd" clip-rule="evenodd" d="M27 33V121H113V33H27ZM62.8332 55.0001H34.1667V84.3335H62.8332V55.0001ZM77.1665 55.0001H105.833V84.3335H77.1665V55.0001ZM41.3332 91.6669H34.1667V113.667H41.3332V91.6669ZM62.8332 91.6669H55.6666H48.4999V113.667H55.6666V99.0002H62.8332V113.667H69.9998V91.6669H62.8332ZM98.6663 99.0002H105.833V106.334H98.6663V113.667H91.4998V91.6669H98.6663V99.0002ZM84.3332 91.6669H77.1665V113.667H84.3332V91.6669Z" fill="white"/>
</g>
<defs>
<clipPath id="clip0_27_2">
<rect width="140" height="140" rx="25" fill="white"/>
</clipPath>
</defs>
</svg>
