<svg width="20" height="90" viewBox="0 0 20 90" fill="none" xmlns="http://www.w3.org/2000/svg">
<g clip-path="url(#clip0_25_3)">
<rect width="5" height="5" fill="black"/>
<rect x="5" width="5" height="5" fill="black"/>
<rect x="10" y="65" width="5" height="5" fill="black"/>
<rect y="5" width="5" height="5" fill="black"/>
<rect x="5" y="5" width="5" height="5" fill="black"/>
<rect x="10" y="5" width="5" height="5" fill="black"/>
<rect x="15" width="5" height="5" fill="black"/>
<rect x="10" width="5" height="5" fill="black"/>
<rect y="10" width="5" height="5" fill="black"/>
<rect x="5" y="10" width="5" height="5" fill="black"/>
<rect x="15" y="10" width="5" height="5" fill="black"/>
<rect x="10" y="10" width="5" height="5" fill="black"/>
<rect y="35" width="5" height="5" fill="black"/>
<rect x="10" y="35" width="5" height="5" fill="black"/>
<rect x="5" y="30" width="5" height="5" fill="black"/>
<rect x="10" y="30" width="5" height="5" fill="black"/>
<rect x="15" y="30" width="5" height="5" fill="black"/>
<rect y="20" width="5" height="5" fill="black"/>
<rect x="5" y="20" width="5" height="5" fill="black"/>
<rect x="15" y="20" width="5" height="5" fill="black"/>
<rect x="10" y="20" width="5" height="5" fill="black"/>
<rect y="25" width="5" height="5" fill="black"/>
<rect x="10" y="25" width="5" height="5" fill="black"/>
<rect y="15" width="5" height="5" fill="black"/>
<rect x="10" y="15" width="5" height="5" fill="black"/>
<rect x="5" y="40" width="5" height="5" fill="black"/>
<rect x="15" y="40" width="5" height="5" fill="black"/>
<rect x="10" y="75" width="5" height="5" fill="black"/>
<rect x="10" y="85" width="5" height="5" fill="black"/>
<path d="M0 75H5V80H0V75Z" fill="black"/>
<rect y="45" width="5" height="5" fill="black"/>
<rect x="10" y="45" width="5" height="5" fill="black"/>
<rect x="5" y="50" width="5" height="5" fill="black"/>
<rect y="55" width="5" height="5" fill="black"/>
<rect x="10" y="55" width="5" height="5" fill="black"/>
</g>
<defs>
<clipPath id="clip0_25_3">
<rect width="20" height="90" fill="white"/>
</clipPath>
</defs>
</svg>
